<svg width="47" height="48" viewBox="0 0 47 48" fill="none" xmlns="http://www.w3.org/2000/svg">
<circle cx="23.5" cy="23.8712" r="23.5" fill="#FBF0DA"/>
<path fill-rule="evenodd" clip-rule="evenodd" d="M13 23.3712C13 17.8484 17.4772 13.3712 23 13.3712C25.6522 13.3712 28.1957 14.4248 30.0711 16.3001C31.9464 18.1755 33 20.7191 33 23.3712C33 28.8941 28.5228 33.3712 23 33.3712C17.4772 33.3712 13 28.8941 13 23.3712ZM23.72 29.1512L26.85 26.0112C26.9447 25.9173 26.9979 25.7895 26.9979 25.6562C26.9979 25.5229 26.9447 25.3951 26.85 25.3012L26.15 24.5912C26.0561 24.4966 25.9283 24.4433 25.795 24.4433C25.6617 24.4433 25.5339 24.4966 25.44 24.5912L24 26.0412V17.8712C24 17.5951 23.7761 17.3712 23.5 17.3712H22.5C22.2239 17.3712 22 17.5951 22 17.8712V26.0412L20.56 24.5912C20.4678 24.4972 20.3417 24.4441 20.21 24.4441C20.0783 24.4441 19.9522 24.4972 19.86 24.5912L19.15 25.3012C19.0553 25.3951 19.0021 25.5229 19.0021 25.6562C19.0021 25.7895 19.0553 25.9173 19.15 26.0112L22.28 29.1512C22.4217 29.2901 22.6116 29.3689 22.81 29.3712H23.19C23.3888 29.371 23.5795 29.2919 23.72 29.1512Z" fill="#F6831D"/>
</svg>
