<svg width="47" height="48" viewBox="0 0 47 48" fill="none" xmlns="http://www.w3.org/2000/svg">
<circle cx="23.5" cy="23.8711" r="23.5" fill="#FBF0DA"/>
<path fill-rule="evenodd" clip-rule="evenodd" d="M28.62 21.3711H30C32.761 21.3711 35 23.6091 35 26.3711C35 29.1331 32.761 31.3711 30 31.3711C27.239 31.3711 25 29.1331 25 26.3711C25 25.2401 25.39 24.2091 26.022 23.3711L24 23.3741C24 25.2681 22.679 26.8471 20.91 27.2611C20.91 27.2631 20.909 27.2661 20.908 27.2671C20.618 27.3351 20.314 27.3711 20.003 27.3711H18.815H15.5C15.224 27.3711 15 27.1501 15 26.8741V25.8741C15 25.5981 15.224 25.3741 15.5 25.3741H18.816C18.403 24.2111 17.303 23.3711 16 23.3711C14.346 23.3711 13 24.7171 13 26.3711C13 28.0251 14.346 29.3711 16 29.3711C16.881 29.3711 17.664 28.9801 18.209 28.3711H20.555C19.783 30.1321 18.046 31.3711 16 31.3711C13.239 31.3711 11 29.1331 11 26.3711C11 23.6091 13.239 21.3711 16 21.3711H26.383L24.665 17.9311C24.494 17.5881 24.143 17.3711 23.76 17.3711H21.5C21.224 17.3711 21 17.1471 21 16.8711V15.8711C21 15.5951 21.224 15.3711 21.5 15.3711H23.764C24.901 15.3711 25.941 16.0141 26.45 17.0311L28.62 21.3711ZM27 26.3711C27 28.0251 28.346 29.3711 30 29.3711C31.654 29.3711 33 28.0251 33 26.3711C33 24.7171 31.654 23.3711 30 23.3711C29.9001 23.3711 29.8042 23.3847 29.7079 23.3984C29.6847 23.4017 29.6614 23.405 29.638 23.4081L31.027 26.1841C31.081 26.2931 31.075 26.4221 31.012 26.5251C30.948 26.6291 30.835 26.6911 30.714 26.6911H29.504C29.22 26.6911 28.96 26.5301 28.833 26.2761L27.843 24.2951C27.324 24.8341 27 25.5641 27 26.3711Z" fill="#F6831D"/>
</svg>
