<svg width="47" height="48" viewBox="0 0 47 48" fill="none" xmlns="http://www.w3.org/2000/svg">
<circle cx="23.5" cy="23.8711" r="23.5" fill="#FBF0DA"/>
<path fill-rule="evenodd" clip-rule="evenodd" d="M31.4962 14.5911L31.7559 14.8511C31.96 15.0382 32.0445 15.3227 31.9756 15.5911L27.3019 31.6511C27.1738 32.0924 26.7618 32.3894 26.3033 32.3711H26.2334C22.1689 32.3711 14 23.6911 14 20.1611V20.0911C13.9818 19.6319 14.2784 19.2194 14.719 19.0911L30.7672 14.3711H30.9769C31.1721 14.3739 31.3584 14.4528 31.4962 14.5911ZM18.9932 21.8711C18.9932 22.6995 19.6639 23.3711 20.4912 23.3711C21.3185 23.3711 21.9892 22.6995 21.9892 21.8711C21.9892 21.0427 21.3185 20.3711 20.4912 20.3711C19.6639 20.3711 18.9932 21.0427 18.9932 21.8711ZM24.9851 27.3711C23.882 27.3711 22.9878 26.4757 22.9878 25.3711C22.9878 24.2665 23.882 23.3711 24.9851 23.3711C26.0882 23.3711 26.9824 24.2665 26.9824 25.3711C26.9824 26.4757 26.0882 27.3711 24.9851 27.3711ZM24.0963 18.4311C24.3243 18.9985 24.8736 19.3705 25.4844 19.3711C26.3117 19.3711 26.9824 18.6995 26.9824 17.8711C26.9922 17.7814 26.9922 17.6908 26.9824 17.6011L24.0963 18.4311Z" fill="#F6831D"/>
</svg>
